<?xml version="1.0" standalone="no"?><!DOCTYPE svg PUBLIC "-//W3C//DTD SVG 1.1//EN" "http://www.w3.org/Graphics/SVG/1.1/DTD/svg11.dtd" ><svg xmlns="http://www.w3.org/2000/svg"><metadata></metadata><defs><font id="FontEditor 1.0 : fonteditor" horiz-adv-x="1229"><font-face font-family="fonteditor" font-weight="400" font-stretch="normal" units-per-em="1024" panose-1="2 0 6 3 0 0 0 0 0 0" ascent="812" descent="-212" x-height="0" bbox="18 -213 1188 813" underline-thickness="0" underline-position="50" unicode-range="U+0000-ff0a" /><missing-glyph horiz-adv-x="1184" d="M539 236 q5 13 6 26 q1 12 -3 18 l-138 173 q-5 5 -14 0 q-9 -5 -15 -17 l-28 -62 l-75 -168 q-6 -13 -7 -25 q0 -12 4 -19 l21 -27 q4 -6 11 -1 q7 4 13 17 l65 145 l109 -136 q4 -6 11 -1 q7 5 13 17 l27 60 Z" /><glyph glyph-name="f" unicode="f" d="M872 -64 q-45 -37 -87 0 l-152 150 q-81 -42 -169 -42 q-281 17 -366 285 q-51 277 188 422 q257 118 456 -79 q175 -219 32 -461 l143 -143 q36 -44 0 -88 l-45 -44 ZM464 670 q-229 -21 -252 -250 q23 -229 252 -251 q228 22 249 251 q-21 229 -249 250 Z" /><glyph glyph-name="x" unicode="x" d="M748 -19 q45 -37 91 0 q38 46 0 91 l-227 228 l227 228 q38 45 0 91 q-46 37 -91 0 l-228 -228 l-227 228 q-46 37 -92 0 q-37 -46 0 -91 l229 -228 l-229 -228 q-37 -45 0 -91 q46 -37 92 0 l227 228 l228 -228 Z" /><glyph glyph-name="D" unicode="d" d="M561 87 q-40 -29 -78 0 l-254 219 q-29 27 -18 65 q16 37 56 38 l137 0 l0 236 q5 54 59 60 l118 0 q54 -6 59 -60 l0 -236 l136 0 q40 -1 55 -38 q12 -38 -17 -65 l-253 -219 ZM781 13 q58 -4 64 -59 q-6 -54 -64 -59 l-517 0 q-58 5 -64 59 q6 55 64 59 l517 0 Z" /><glyph glyph-name="d" unicode="d" d="M853 409 q-16 -35 -55 -37 l-154 0 l0 -239 q-6 -55 -61 -60 l-119 0 q-55 5 -61 60 l0 239 l-154 0 q-39 2 -56 37 q-13 36 14 66 l275 214 q17 18 42 18 q25 0 42 -18 l274 -214 q27 -30 13 -66 ZM792 12 q60 -4 66 -59 q-6 -55 -66 -60 l-536 0 q-61 5 -67 60 q6 55 67 59 l536 0 Z" /><glyph glyph-name="e" unicode="e" d="M837 749 l-631 0 q-40 -4 -44 -42 l0 -814 q4 -38 44 -42 l631 0 q40 4 44 42 l0 814 q-4 38 -44 42 ZM807 554 q-2 -29 -33 -31 l-503 0 q-30 2 -33 31 l0 89 q3 28 33 30 l503 0 q31 -2 33 -30 l0 -89 ZM772 431 q17 -19 0 -40 l-457 -456 q-20 -17 -40 0 q-8 8 -8 19 q0 13 8 21 l457 456 q8 8 20 9 q11 -1 20 -9 ZM338 283 l-71 0 q-27 3 -29 29 q2 25 29 28 l71 0 l0 71 q2 26 28 29 q26 -3 29 -29 l0 -71 l71 0 q26 -3 29 -28 q-3 -26 -29 -29 l-71 0 l0 -71 q-3 -27 -29 -29 q-26 2 -28 29 l0 71 ZM580 108 l201 0 q25 -3 28 -33 q-3 -29 -28 -32 l-201 0 q-26 3 -28 32 q2 30 28 33 Z" /><glyph glyph-name="v" unicode="v" d="M137 449 l83 84 l301 -306 l300 306 l85 -84 l-385 -382 l-384 382 Z" /><glyph glyph-name="asciicircum" unicode="^" d="M521 533 l385 -382 l-85 -84 l-300 306 l-301 -306 l-83 84 l384 382 Z" /><glyph glyph-name="less" unicode="&lt;" d="M670 685 l85 -83 l-306 -301 l306 -300 l-84 -85 l-382 385 l381 384 Z" /><glyph glyph-name="greater" unicode="&gt;" d="M373 -68 l-84 83 l306 300 l-306 300 l84 86 l382 -386 l-382 -383 Z" /><glyph glyph-name="r" unicode="r" d="M765 384 q20 -17 21 -43 q-1 -26 -21 -43 l-346 -268 q-27 -20 -56 -7 q-30 16 -31 50 l0 537 q1 33 31 49 q29 13 56 -6 l346 -269 Z" /><glyph glyph-name="t" unicode="t" d="M562 530 l269 -346 q19 -27 6 -56 q-16 -30 -49 -31 l-537 0 q-34 1 -50 31 q-13 29 7 56 l268 346 q17 20 43 21 q26 -1 43 -21 Z" /><glyph glyph-name="l" unicode="l" d="M273 387 l346 269 q27 19 56 6 q30 -16 31 -49 l0 -537 q-1 -34 -31 -50 q-29 -13 -56 7 l-346 268 q-20 17 -21 43 q1 26 21 43 Z" /><glyph glyph-name="b" unicode="b" d="M562 49 q-17 -20 -43 -21 q-26 1 -43 21 l-268 346 q-20 27 -7 56 q16 30 50 31 l537 0 q33 -1 49 -31 q13 -29 -6 -56 l-269 -346 Z" /><glyph glyph-name="*" unicode="&#x2192;" d="M473 188 l0 -217 l430 359 l-430 361 l0 -217 l-287 0 l0 -286 l287 0 Z" /><glyph glyph-name="*" unicode="&#x2193;" d="M378 372 l-217 0 l359 -430 l361 430 l-217 0 l0 287 l-286 0 l0 -287 Z" /><glyph glyph-name="*" unicode="&#x2191;" d="M664 253 l217 0 l-359 430 l-361 -430 l217 0 l0 -287 l286 0 l0 287 Z" /><glyph glyph-name="*" unicode="&#x2190;" d="M584 467 l0 217 l-430 -359 l430 -361 l0 217 l287 0 l0 286 l-287 0 Z" /><glyph glyph-name="s" unicode="s" d="M315 -121 q-55 4 -60 60 l0 361 q5 55 60 60 l0 121 q21 219 241 240 q220 -21 241 -240 l0 -121 q55 -5 60 -60 l0 -361 q-5 -56 -60 -60 l-482 0 ZM676 481 q-9 109 -120 121 q-110 -12 -120 -121 l0 -121 l240 0 l0 121 Z" /><glyph glyph-name="c" unicode="c" d="M316 -122 q-53 5 -60 59 l0 361 q7 55 60 61 l0 120 q21 220 240 241 q220 -21 241 -241 l-119 0 q-10 111 -122 120 q-110 -9 -120 -120 l0 -120 l361 0 q55 -6 60 -61 l0 -361 q-5 -54 -60 -59 l-481 0 Z" /><glyph glyph-name="h" unicode="h" d="M223 -128 q-60 5 -66 65 l0 726 q6 60 66 65 l65 0 l0 -329 l463 0 l0 329 l66 0 q60 -5 66 -65 l0 -726 q-6 -60 -66 -65 l-594 0 ZM685 728 l0 -263 l-330 0 l0 263 l330 0 ZM553 564 q3 -30 32 -33 q31 3 34 33 l0 66 q-3 29 -34 33 q-29 -4 -32 -33 l0 -66 Z" /><glyph glyph-name="y" unicode="y" d="M707 59 q120 91 125 241 q-3 150 -123 243 l91 68 q153 -119 156 -313 q-7 -194 -162 -310 l-87 71 ZM589 173 q61 49 61 128 q-4 79 -68 125 l78 60 q104 -64 109 -185 q-1 -121 -102 -189 l-78 61 ZM209 113 l-62 0 q-57 5 -63 62 l0 249 q6 56 63 62 l62 0 l209 168 q32 23 67 8 q34 -18 35 -56 l0 -613 q-1 -39 -35 -56 q-35 -16 -67 7 l-209 169 Z" /><glyph glyph-name="n" unicode="n" d="M285.5 407 q22.5 0 42 -8.5 q19.5 -8.5 34 -23 q14.5 -14.5 23 -34 q8.5 -19.5 8.5 -41.5 q0 -22 -8.5 -42 q-8.5 -20 -23 -34 q-14.5 -14 -34 -22.5 q-19.5 -8.5 -42 -8.5 q-22.5 0 -42 8.5 q-19.5 8.5 -34.5 22.5 q-15 14 -23 34 q-8 20 -8 42 q0 22 8 41.5 q8 19.5 23 34 q15 14.5 34.5 23 q19.5 8.5 42 8.5 ZM554 407 q22 0 41 -8.5 q19 -8.5 34.5 -23 q15.5 -14.5 24 -34 q8.5 -19.5 8.5 -41.5 q0 -22 -8.5 -42 q-8.5 -20 -24 -34 q-15.5 -14 -34.5 -22.5 q-19 -8.5 -41 -8.5 q-22 0 -42 8.5 q-20 8.5 -34 22.5 q-14 14 -23 34 q-9 20 -9 42 q0 22 9 41.5 q9 19.5 23 34 q14 14.5 34 23 q20 8.5 42 8.5 ZM821.5 407 q21.5 0 41.5 -8.5 q20 -8.5 35 -23 q15 -14.5 23.5 -34 q8.5 -19.5 8.5 -41.5 q0 -22 -8.5 -42 q-8.5 -20 -23.5 -34 q-15 -14 -35 -22.5 q-20 -8.5 -41.5 -8.5 q-21.5 0 -41.5 8.5 q-20 8.5 -34.5 22.5 q-14.5 14 -23 34 q-8.5 20 -8.5 42 q0 22 8.5 41.5 q8.5 19.5 23 34 q14.5 14.5 34.5 23 q20 8.5 41.5 8.5 Z" /><glyph glyph-name="hyphen" unicode="-" d="M133 355 l762 0 l0 -108 l-762 0 l0 108 Z" /><glyph glyph-name="q" unicode="q" d="M732 335 l0 -383 q-2 -43 -40 -64 q-38 -16 -72 9 l-179 146 l-127 -128 q-48 -53 -110 -18 q-36 63 17 111 l587 591 q49 52 110 17 q35 -62 -17 -111 l-169 -170 ZM732 631 q-2 42 -40 62 q-38 18 -72 -8 l-203 -167 q-10 -7 -17 -18 l-145 0 q-62 -7 -68 -69 l0 -280 q2 -34 28 -54 l517 516 l0 18 Z" /><glyph glyph-name="p" unicode="p" d="M283 544 q-55 6 -60 62 q5 55 60 61 l123 0 q5 56 61 61 l122 0 q56 -5 62 -61 l122 0 q56 -6 61 -61 q-5 -56 -61 -62 l-490 0 ZM773 -66 q-6 -57 -61 -62 l-368 0 q-55 5 -61 62 l0 550 l490 0 l0 -550 Z" /><glyph glyph-name="u" unicode="u" d="M782 99 l20 -167 l-105 -61 l-134 101 l-86 0 l-135 -100 l-105 60 l20 167 l-43 74 l-154 67 l0 120 l154 67 l43 75 l-20 166 l105 61 l135 -100 l86 0 l134 100 l105 -61 l-20 -166 l44 -75 l154 -66 l0 -121 l-154 -67 l-44 -74 ZM520 432 q-121 -11 -131 -131 q10 -121 131 -131 q120 10 131 131 q-11 120 -131 131 Z" /><glyph glyph-name="z" unicode="z" d="M822 -24 q14 -52 -27 -88 q-43 -31 -89 -2 l-133 91 q-46 29 -89 -3 l-110 -88 q-43 -31 -88 -5 q-43 31 -35 83 l32 169 q9 46 -28 78 l-107 88 q-40 36 -27 85 q15 50 66 57 l149 16 q44 7 62 46 l64 153 q22 47 74 47 q52 -4 69 -54 l47 -136 q16 -47 67 -53 l161 -12 q52 -7 69 -58 q11 -53 -29 -86 l-115 -86 q-43 -35 -29 -88 l46 -154 Z" /><glyph glyph-name="a" unicode="a" d="M661 357 q-38 1 -54 36 q-13 36 13 64 l75 75 q-79 59 -175 60 q-120 -3 -202 -79 q-82 -76 -93 -196 q-5 -119 66 -206 q71 -86 188 -105 q118 -14 210 51 q93 66 118 182 l119 0 q-30 -167 -155 -264 q-124 -99 -293 -86 q-168 20 -271 140 q-104 121 -99 289 q11 169 127 278 q116 110 285 114 q145 -1 258 -94 l53 52 q28 26 64 13 q34 -16 37 -54 l0 -212 q-1 -23 -18 -41 q-18 -17 -41 -17 l-212 0 Z" /><glyph glyph-name="plus" unicode="+" d="M530 813 q-218 -7 -363 -152 q-143 -143 -149 -362 q6 -220 149 -363 q145 -146 363 -149 q219 3 364 149 q146 143 150 363 q-4 219 -150 362 q-145 145 -364 152 ZM530 -134 q-184 5 -307 125 q-121 124 -127 310 q6 184 128 305.5 q122 121.5 306 127.5 q186 -6 308 -127.5 q122 -121.5 127 -305.5 q-5 -186 -126 -310 q-121 -120 -309 -125 ZM577 560 l-89 0 l0 -217 l-218 0 l-1 -44 l1 -43 l218 0 l0 -221 l89 0 l0 221 l216 0 l0 87 l-216 0 l0 217 Z" /><glyph glyph-name="H" unicode="h" d="M239 -10 q-53 5 -58 58 q5 52 58 58 l285 0 q-26 1 -42 22 l-231 338 q-21 31 -6 66 q15 33 52 34 l461 0 q36 -1 51 -34 q15 -35 -6 -66 l-230 -338 q-16 -21 -43 -22 l285 0 q54 -6 59 -58 q-5 -53 -59 -58 l-576 0 Z" /><glyph glyph-name="Y" unicode="y" d="M534 455 q28 -2 44 -24 l233 -340 q20 -31 5 -66 q-15 -34 -52 -35 l-465 0 q-37 1 -52 35 q-15 35 7 66 l232 340 q16 22 43 24 l-289 0 q-52 5 -57 58 q5 53 57 58 l582 0 q53 -5 59 -58 q-6 -53 -59 -58 l-288 0 Z" /><glyph glyph-name="J" unicode="j" d="M486 -55 q5 -55 59 -60 q54 5 59 60 l0 296 l297 0 q54 5 59 59 q-5 54 -59 59 l-297 0 l0 297 q-5 54 -59 59 q-54 -5 -59 -59 l0 -297 l-296 0 q-55 -5 -60 -59 q5 -54 60 -59 l296 0 l0 -296 Z" /><glyph glyph-name="W" unicode="w" d="M810 63 l0 59 l-595 0 l0 -59 l-59 0 q-54 4 -60 59 l0 356 q6 55 60 59 l59 0 l0 -59 l595 0 l0 59 l59 0 q54 -4 60 -59 l0 -356 q-6 -55 -60 -59 l-59 0 ZM572 359 q-54 -5 -59 -59 q5 -54 59 -59 l178 0 q54 5 60 59 q-6 54 -60 59 l-178 0 ZM274 657 q5 54 61 59 l355 0 q55 -5 60 -59 l0 -120 l-476 0 l0 120 ZM750 -57 q-5 -54 -60 -59 l-355 0 q-56 5 -61 59 l0 120 l476 0 l0 -120 Z" /><glyph glyph-name="dollar" unicode="$" d="M791 133 q-51 4 -56 55 l0 224 q5 51 56 55 l56 0 q51 -4 55 -55 l0 -224 q-4 -51 -55 -55 l-56 0 ZM456 133 q-51 4 -56 55 l0 447 q5 51 56 55 l112 0 q51 -4 55 -55 l0 -447 q-4 -51 -55 -55 l-112 0 ZM177 133 q-51 4 -55 55 l0 279 q4 51 55 56 l55 0 q52 -5 56 -56 l0 -279 q-4 -51 -56 -55 l-55 0 ZM847 21 q51 -4 55 -56 q-4 -51 -55 -55 l-670 0 q-51 4 -55 55 q4 52 55 56 l670 0 Z" /><glyph glyph-name="i" unicode="i" d="M45 300 q113 326 465 348 q356 -22 469 -348 q-113 -327 -469 -348 q-352 21 -465 348 ZM510 160 q129 12 143 140 q-14 126 -143 140 q-125 -14 -139 -140 q14 -128 139 -140 Z" /><glyph glyph-name="A" unicode="a" d="M828 -101 l0 -29 q-2 -28 -30 -30 l-532 0 q-28 2 -30 30 l0 29 l215 129 q-135 34 -210 142 q-74 107 -62 244 q19 138 117 226 q97 86 237 88 q138 -2 235 -89 q98 -88 116 -225 q14 -137 -62 -244 q-76 -108 -208 -142 l214 -129 ZM532 550 q-162 -16 -177 -177 q15 -163 177 -178 q163 15 178 178 q-15 161 -178 177 Z" /><glyph glyph-name="B" unicode="b" d="M587 -144 l-127 252 l127 255 l254 0 l128 -255 l-128 -252 l-254 0 ZM714 236 q-117 -11 -127 -128 q10 -115 127 -125 q116 10 127 125 q-11 117 -127 128 ZM397 363 q-175 18 -191 190 q16 175 191 192 q174 -17 190 -192 q-16 -172 -190 -190 ZM332 108 l128 -252 l-317 0 q-58 5 -63 63 l63 317 q5 57 63 64 l222 0 l-96 -192 Z" /><glyph glyph-name="k" unicode="k" d="M267 15 q-41 -34 -84 0 q-34 43 0 84 l545 545 q41 35 83 0 q35 -42 0 -84 l-32 -32 q94 -79 131 -198 q-96 -277 -398 -297 q-100 2 -184 43 l-61 -61 ZM471 218 q19 -6 41 -7 q109 11 119 119 q0 22 -8 41 l-152 -153 ZM195 182 q-55 64 -81 148 q96 276 398 296 q59 -1 112 -15 l-429 -429 Z" /><glyph glyph-name="m" unicode="m" d="M549 207 q-37 -25 -76 0 l-339 243 q-25 20 -26 52 q1 32 26 52 l62 44 l277 -198 q39 -25 76 0 l277 198 l62 -44 q26 -20 27 -52 q-1 -32 -27 -52 l-339 -243 ZM196 277 l277 -199 q39 -25 76 0 l277 199 l62 -44 q26 -20 28 -53 q-2 -32 -28 -52 l-339 -243 q-37 -24 -75 0 l-339 243 q-26 20 -27 52 q1 33 26 53 l62 44 Z" /><glyph glyph-name="o" unicode="o" d="M851 176 q33 -34 14 -80 q-22 -43 -69 -40 q-47 7 -60 52 l-37 67 q-60 -23 -120 -30 l0 -6 l0 -131 q-6 -63 -67 -67 q-61 4 -66 67 l0 131 l1 7 q-51 6 -100 22 l-59 -103 q-20 -33 -57 -35 q-38 2 -59 34 q-17 33 0 67 l54 93 q-109 70 -176 182 q16 84 91 117 q110 -238 371 -249 q262 11 371 249 q78 -33 91 -117 q-60 -103 -157 -170 l34 -60 Z" /><glyph glyph-name="w" unicode="w" d="M263 176 q-39 2 -56 37 q-16 38 7 72 l248 301 q19 25 50 26 q31 -1 49 -26 l249 -301 q23 -34 7 -72 q-17 -36 -57 -37 l-497 0 ZM761 113 q57 -5 62 -62 q-5 -57 -62 -63 l-498 0 q-57 6 -63 63 q6 57 63 62 l498 0 Z" /><glyph glyph-name="C" unicode="c" d="M241 467 q-56 5 -61 61 q5 57 61 62 l495 0 q56 -5 61 -62 q-5 -56 -61 -61 l-495 0 ZM735 404 q39 -2 56 -37 q16 -38 -7 -71 l-247 -298 q-18 -26 -49 -26 q-30 0 -49 26 l-247 298 q-23 33 -7 71 q17 35 57 37 l493 0 Z" /><glyph glyph-name="E" unicode="e" d="M524 -133 q-181 5 -301 125 q-120 119 -124 300 l120 0 q4 -129 90 -214 q85 -86 215 -89 q128 3 214 89 q86 85 89 214 q-3 130 -89 215 q-86 85 -214 89 l0 121 q180 -4 300 -125 q120 -119 125 -300 q-5 -181 -125 -300 q-120 -120 -300 -125 ZM524 414 q111 -11 121 -122 q-10 -111 -121 -121 q-111 10 -122 121 q1 19 6 35 l-181 182 q-24 24 -16 59 q9 34 43 44 q34 7 59 -17 l184 -184 q14 3 27 3 Z" /><glyph glyph-name="percent" unicode="%" d="M214 245 q-51 3 -56 55 q5 52 56 55 l612 0 q51 -3 56 -55 q-5 -52 -56 -55 l-612 0 ZM214 467 q-51 5 -56 56 q5 51 56 55 l612 0 q51 -4 56 -55 q-5 -51 -56 -56 l-612 0 ZM826 133 q51 -5 56 -56 q-5 -51 -56 -55 l-612 0 q-51 4 -56 55 q5 51 56 56 l612 0 Z" /><glyph glyph-name="I" unicode="i" d="M827 377 q52 -5 57 -57 q-5 -53 -57 -57 l-493 0 l228 -227 q33 -41 0 -81 q-41 -34 -82 0 l-324 323 q-19 21 -16 47 q2 19 16 35 l324 324 q41 33 82 0 q33 -41 0 -81 l-226 -226 l491 0 Z" /><glyph glyph-name="K" unicode="k" d="M947 -99 l0 -72 l-870 0 l0 72 l73 0 l0 435 l145 0 l0 -435 l144 0 l0 580 l146 0 l0 -580 l144 0 l0 653 l145 0 l0 -653 l73 0 ZM295 626 l-218 -145 l0 73 l218 145 l434 0 l145 72 l0 -72 l-145 -73 l-434 0 Z" /><glyph glyph-name="L" unicode="l" d="M874 -4 l65 -60 l-35 -34 q-24 -29 -30 -29 l-724 0 q-4 0 -11 17 q-7 17 -11 34 q-43 7 -43 14 l0 658 q0 3 8 4 l55 56 l60 -65 l-58 0 l0 -653 l724 0 l0 58 ZM611 727 q328 0 328 -328 l-328 0 l0 328 ZM587 71 q-83 0 -153.5 39.5 q-70.5 39.5 -111 107 q-40.5 67.5 -40.5 147.5 q0 111 75.5 193.5 q75.5 82.5 187.5 97.5 l0 -323 l344 0 q-13 -111 -99 -186.5 q-86 -75.5 -203 -75.5 Z" /><glyph glyph-name="N" unicode="n" d="M571 47 l-234 -176 l-118 176 l-58 0 q-54 4 -58 58 l0 526 q4 54 58 59 l702 0 q54 -5 59 -59 l0 -526 q-5 -54 -59 -58 l-292 0 ZM460 573 q-28 -3 -30 -29 l0 -178 q2 -26 30 -28 l104 0 q27 2 29 28 l0 178 q-2 26 -29 29 l-104 0 ZM460 280 q-28 -2 -30 -28 l0 -59 q2 -28 30 -30 l104 0 q27 2 29 30 l0 59 q-2 26 -29 28 l-104 0 Z" /><glyph glyph-name="O" unicode="o" d="M890 342 q-3 160 -112 268 q-108 108 -269 111 q-162 -3 -270 -111 q-109 -108 -111 -268 q0 -10 0 -20 q0 -4 0 -9 q21 -185 176 -336 q154 -152 176 -161 q6 -17 57 0 q42 23 187.5 168.5 q145.5 145.5 165.5 328.5 q0 5 -1 9 q1 10 1 20 ZM509 196 q-134 13 -146 146 q12 133 146 147 q134 -14 146 -147 q-12 -133 -146 -146 Z" /><glyph glyph-name="P" unicode="p" d="M375 663 q55 -5 60 -60 l0 -606 q-5 -55 -60 -60 q-56 5 -61 60 l0 606 q5 55 61 60 ZM617 663 q55 -5 61 -60 l0 -606 q-6 -55 -61 -60 q-55 5 -60 60 l0 606 q5 55 60 60 Z" /><glyph glyph-name="Q" unicode="q" d="M896 -6 q56 -5 61 -61 q-5 -57 -61 -62 l-735 0 q-57 5 -62 62 q5 56 62 61 l735 0 ZM834 423 q-3 130 -89 216 q-88 86 -217 90 q-130 -4 -217 -90 q-87 -86 -90 -216 l0 -368 l613 0 l0 368 ZM406 423 q56 -6 61 -62 l0 -122 q-5 -56 -61 -61 q-57 5 -62 61 l0 122 q5 56 62 62 Z" /><glyph glyph-name="R" unicode="r" d="M857 685 q51 -5 56 -56 l0 -673 q-5 -52 -56 -57 l-674 0 q-51 5 -56 57 l0 673 q5 51 56 56 l674 0 ZM349 347 q-48 -6 -52 -56 q4 -48 52 -56 l341 0 q48 8 52 56 q-4 50 -52 56 l-341 0 ZM351 572 q-51 -4 -56 -55 q5 -53 56 -55 l337 0 q51 2 57 55 q-6 51 -57 55 l-337 0 ZM351 123 q-51 -3 -56 -55 q5 -52 56 -56 l337 0 q51 4 57 56 q-6 52 -57 55 l-337 0 Z" /><glyph glyph-name="S" unicode="s" d="M215 -128 q-60 6 -65 65 l0 726 q5 59 65 65 l331 0 l0 -328 l328 0 l0 -463 q-4 -59 -65 -65 l-594 0 ZM578 69 q31 3 34 34 q-3 29 -34 32 l-264 0 q-29 -3 -33 -32 q4 -31 33 -34 l264 0 ZM314 268 q-29 -4 -33 -33 q4 -31 33 -35 l396 0 q30 4 33 35 q-3 29 -33 33 l-396 0 ZM614 728 l260 -256 l0 -7 l-262 0 l0 263 l2 0 Z" /><glyph glyph-name="T" unicode="t" d="M368 -118 q-55 6 -60 60 l0 61 l60 0 l0 178 l299 0 q24 4 43 46 q16 45 17 73 q-1 27 -18.5 71 q-17.5 44 -41.5 47 l-299 0 l0 178 l-60 0 l0 62 q5 54 60 60 l477 0 q55 -6 60 -60 l0 -716 q-5 -54 -60 -60 l-477 0 ZM607 360 q55 -5 60 -60 q-5 -55 -60 -60 l-300 0 l0 -133 q-2 -43 -43 -57 q-42 -9 -68 27 l-109 193 q-15 29 0 57 l109 193 q26 37 68 28 q41 -12 43 -57 l0 -131 l300 0 Z" /><glyph glyph-name="F" unicode="f" d="M828 -69 q-43 -35 -84 0 l-215 214 q-48 -18 -100 -19 q-154 4 -245 129 q-84 131 -30 276 l155 -155 q43 -34 84 0 l84 84 q17 18 18 42 q-1 25 -18 42 l-155 155 q176 63 315 -61 q129 -137 71 -315 l214 -214 q34 -42 0 -84 l-94 -94 Z" /><glyph glyph-name="G" unicode="g" d="M666 278 q-22 -20 -54 -22 q-31 2 -51 22 l-55 54 q-43 53 0 107 l267 267 q23 22 53 22 q32 0 53 -22 l53 -52 q45 -55 0 -107 l-266 -269 ZM320 92 l81 240 l159 -160 l-240 -80 ZM590 116 l121 123 l0 -306 q-4 -55 -60 -61 l-490 0 q-56 6 -59 61 l0 734 q3 55 59 61 l490 0 q25 -1 42 -17 l-349 -350 l-123 -367 l369 122 Z" /><glyph glyph-name="U" unicode="u" d="M430 104 l247 362 l-363 -245 l-190 190 l776 277 l-278 -776 l-192 192 ZM124 189 l277 -277 l-277 0 l0 277 Z" /><glyph glyph-name="V" unicode="v" d="M138 50 q-58 6 -63 63 q5 56 63 62 l61 0 l0 250 q4 132 92 221 q88 87 221 91 q132 -4 221 -91 q87 -89 91 -221 l0 -250 l62 0 q58 -6 63 -62 q-5 -57 -63 -63 l-748 0 ZM636 -12 q57 -5 62 -62 q-5 -58 -62 -63 l-249 0 q-57 5 -62 63 q5 57 62 62 l249 0 Z" /><glyph glyph-name="Z" unicode="z" d="M451 43 q-24 0 -42 17 l-254 254 q-36 42 0 85 q42 35 84 0 l212 -212 l381 381 q43 35 85 0 q35 -42 0 -84 l-423 -424 q-19 -17 -43 -17 Z" /><glyph glyph-name="g" unicode="g" d="M714 -105 q-29 2 -31 31 l0 471 l219 -156 l0 -315 q-3 -27 -30 -31 l-158 0 ZM431 -105 q-29 2 -31 31 l0 723 l220 -158 l0 -565 q-4 -27 -31 -31 l-158 0 ZM148 -105 q-29 2 -30 31 l0 377 l219 157 l0 -534 q-4 -27 -31 -31 l-158 0 Z" /><glyph glyph-name="numbersign" unicode="#" d="M371 196 q-74 -19 -138 -46.5 q-64 -27.5 -110 -65 q-46 -37.5 -46 -71.5 l0 -26 q0 -35 37.5 -60 q37.5 -25 102.5 -37.5 q65 -12.5 136.5 -18.5 q71.5 -6 157.5 -6 q86 0 158 6 q72 6 137 18.5 q65 12.5 103 37.5 q38 25 38 60 l0 26 q0 34 -45.5 71 q-45.5 37 -107.5 64 q-62 27 -134 48 q-7 3 -17.5 14.5 q-10.5 11.5 -18 34 q-7.5 22.5 5.5 49.5 q51 44 83.5 107.5 q32.5 63.5 32.5 127.5 q0 65 -32.5 113 q-32.5 48 -85.5 70.5 q-53 22.5 -116.5 22.5 q-63.5 0 -117.5 -22.5 q-54 -22.5 -88 -70.5 q-34 -48 -34 -113 q0 -64 34.5 -127 q34.5 -63 86.5 -107 l-1 0 q13 -31 7 -53.5 q-6 -22.5 -14.5 -32.5 q-8.5 -10 -13.5 -13 Z" /><glyph glyph-name="asterisk" unicode="*" d="M215 -104 l169 420 l62 -189 l116 0 l69 138 l104 -138 l116 0 l-175 231 l-114 0 l-46 -93 l-70 208 l-115 0 l-221 -551 q-9 14 -10 32 l0 693 q5 52 58 57 l693 0 q52 -5 57 -57 l0 -693 q-5 -53 -57 -58 l-636 0 Z" /><glyph glyph-name="at" unicode="@" d="M179 566 l269 0 l0 135 l-269 0 l0 -135 ZM579 566 l266 0 l0 135 l-266 0 l0 -135 ZM179 167 l269 0 l0 334 l-269 0 l0 -334 ZM179 -101 l269 0 l0 201 l-269 0 l0 -201 ZM579 167 l266 0 l0 334 l-266 0 l0 -334 ZM579 -101 l266 0 l0 201 l-266 0 l0 -201 Z" /><glyph glyph-name="exclam" unicode="!" d="M428 65 l-23 747 l162 0 l-15 -747 l-124 0 ZM552 -42 q17 -12 21.5 -28 q4.5 -16 -6.5 -34 q0 -38 -23 -62 q-21 -30 -62 -30 q-38 0 -69 30 q-23 24 -23 62.5 q0 38.5 31 68.5 q34 23 69 23 q31 0 62 -30 Z" /><glyph glyph-name="asciitilde" unicode="~" d="M624 363 q-9 26 -25 44 q-17 19 -40 29 q-23 11 -52 11 q-30 0 -54 -12 q-24 -12 -41 -31 q-17 -20 -26 -46 q-9 -25 -9 -53 q0 -9 1 -17 l254 0 l0 21 q0 29 -8 54 ZM452 377 q10 10 23 17 q13 6 29 6 q17 0 32 -6 q13 -6 23 -16 q10 -10 15 -24 q4 -11 5 -23 l-148 0 q1 11 6 22 q5 14 15 24 ZM936 323 q-13 104 -115 122 q-46 7 -84 -11 q-38 -17 -59 -55 q-20 -41 -17 -87 q2 -65 38.5 -101.5 q36.5 -36.5 99.5 -37.5 q105 1 132 97 q9 36 5 73 ZM879 260 q-18 -65 -86 -63 q-59 4 -75 68 q-2 10 -2 32 q-1 22 4 43 q20 62 81 62 q60 -2 78 -64 q10 -39 0 -78 ZM1172 280 q-12 15 -30 24 q-19 10 -40 17 q-21 7 -39 14 q-17 7 -28 16 q-10 8 -10 19 q0 13 12 21 q12 9 36 9 q22 0 38 -8 q14 -6 16 -25 l1 -5 l24 0 l10 0 q6 -1 11 -1 l6 0 l0 6 q-2 20 -10 36 q-8 15 -23 25 q-14 10 -33 14 q-18 5 -40 5 q-19 0 -36 -5 q-18 -4 -32 -14 q-15 -9 -23 -23 q-9 -15 -8 -34 q1 -25 14 -41 q12 -15 30 -25 q19 -10 40 -17 q21 -7 39 -14 q17 -7 28 -16 q10 -8 10 -21 q0 -10 -5 -17 q-6 -8 -14 -12 q-9 -4 -21 -6 q-11 -2 -22 -2 q-24 0 -41 11 q-15 11 -16 38 l0 5 l-52 0 l0 -5 q0 -24 10 -42 q9 -18 24 -30 q15 -12 34 -17 q20 -6 41 -6 q23 0 43 5 q21 5 36 15 q16 10 26 27 q10 17 9 41 q-2 23 -15 38 ZM580 261 q-6 -19 -16 -32 q-10 -13 -25 -21 q-14 -8 -32 -8 q-18 0 -32 8 q-15 8 -25 21 q-10 13 -15 32 l-2 7 l-52 0 q2 -13 5 -24 q9 -27 25 -47 q17 -20 41 -32 q24 -11 55 -11 q31 0 55 11 q25 12 42 32 q16 20 25 47 q3 11 5 24 l-52 0 l-2 -7 ZM110 447 q-19 -1 -35 -8 q-30 -14 -44 -45 q-8 -16 -8 -35 l0 -205 l52 0 l0 205 q3 32 35 35 l1 0 l24 1 l0 52 l-25 0 ZM264 447 q19 -1 35 -8 q30 -14 44 -45 q8 -16 8 -35 l0 -205 l-52 0 l0 205 q-3 32 -35 35 l-1 0 l-24 1 l0 52 l25 0 ZM162 447 l52 0 l0 -293 l-52 0 l0 293 Z" /><glyph glyph-name="question" unicode="?" d="M920 351 q-61 53 -169 155 q-108 101 -179 172 q-28 30 -44 30 q-16 0 -44 -30 q-70 -69 -180 -170 q-110 -101 -167 -157 q-24 -23 0 -47 q19 -21 39 -40 q25 -28 46 4 q47 45 128 127 q81 83 139 141 q24 26 39 26 q15 0 40 -27 q55 -55 138 -136 q81 -80 130 -128 q19 -21 30 -18 q11 3 27 22 q12 12 26 23 q30 27 1 53 ZM573 442 q-43 52 -86 1 q-67 -67 -150.5 -148 q-83.5 -81 -91.5 -89 l0 -191 l0 -39 q3 -22 25 -24 l123 0 q22 2 24 24 l0 38 l0 153 q3 23 27 26 l171 0 q24 -3 26 -26 l0 -153 l0 -38 q2 -22 24 -24 l123 0 q23 2 25 24 l0 27 l1 203 q-9 8 -92 88 q-83 81 -149 148 Z" /><glyph glyph-name="grave" unicode="`" d="M737 41 q52 -5 55 -57 q-3 -51 -55 -56 l-507 0 q-43 3 -55 44 l-1 0 l0 5 q0 3 0 7 q0 9 3 19 l20 222 q3 20 17 34 l301 300 q40 33 79 0 l124 -123 q33 -40 0 -80 l-305 -304 q-6 -8 -15 -11 l339 0 ZM835 564 q33 -40 0 -79 l-4 -6 q-40 -32 -80 0 l-124 124 q-33 40 0 80 l5 5 q39 32 79 0 l124 -124 Z" /><glyph glyph-name="ff08" unicode="&#xff08;" d="M699 684 l258 0 q37 -2 41 -40 l0 -265 q-2 -14 -11 -26 l-426 -427 q-26 -21 -52 0 l-268 269 q-20 26 0 52 l423 422 q14 14 35 15 ZM817 435 q58 6 64 62 q-5 60 -65 65 q-58 -5 -64 -64 q6 -58 65 -63 Z" /><glyph glyph-name="ff09" unicode="&#xff09;" d="M940 57 q55 6 60 61 q-5 56 -60 61 l-244 0 q-56 -5 -61 -61 q5 -55 61 -61 l244 0 ZM696 300 q56 5 61 61 l61 303 q-6 55 -61 60 l-548 0 q-56 -5 -60 -60 l60 -303 q5 -56 61 -61 l122 0 l0 -283 q0 -20 11 -36 l61 -80 q28 -33 69 -22 q40 15 42 58 l0 363 l121 0 ZM696 -3 q-56 -6 -61 -60 q5 -56 61 -61 l244 0 q55 5 60 61 q-5 54 -60 60 l-244 0 Z" /><glyph glyph-name="ff0a" unicode="&#xff0a;" d="M844 247 q-36 -32 -82 -32 q-47 0 -83 32 l-13 14 q22 -9 41 8 l112 112 q35 36 35 83 q0 46 -35 82 l-18 18 q-35 33 -81 33 q-47 0 -84 -33 l-112 -113 q-15 -12 -15 -33 l-5 6 q-35 36 -35 82 q0 46 35 83 l131 134 q37 34 83 34 q47 0 82 -34 l178 -177 q33 -36 33 -82 q0 -48 -33 -83 l-134 -134 ZM295 232 q-36 -37 -36 -86 q0 -49 36 -84 l18 -19 q37 -36 86 -36 q49 0 85 36 l118 118 q15 13 15 35 l4 -6 q37 -38 37 -86 q0 -47 -37 -85 l-137 -140 q-37 -37 -86 -37 q-48 0 -85 37 l-182 182 q-35 36 -35 85 q0 49 35 84 l140 140 q38 36 85 36 q49 0 86 -36 l6 -4 q-22 -1 -35 -16 l-118 -118 ZM407 758 l1 -122 l-124 -34 l3 156 l120 0 ZM230 579 l32 -124 l-156 0 l0 121 l124 3 ZM711 -147 l-1 123 l122 32 l-2 -155 l-119 0 ZM888 31 l-32 125 l154 0 l0 -123 l-122 -2 Z" /><glyph glyph-name="j" unicode="j" d="M743 232 q-23 -23 -55 -13 q-31 13 -33 46 l0 74 l-102 0 q-153 9 -196 -113 q-3 -27 -29 -38 q-34 10 -31 52 q5 150 106.5 249 q101.5 99 251.5 103 l0 74 q2 33 33 45 q32 10 55 -12 l186 -200 q28 -34 0 -68 l-186 -199 ZM591 657 q-151 -10 -251 -133 q-97 -123 -101 -277 q0 -31 16 -72 q14 -42 42 -45 l60 0 q43 124 176 117 l58 0 l0 -117 l118 0 l0 -176 q-5 -55 -60 -60 l-469 0 q-54 5 -59 60 l0 703 q5 54 59 59 l411 0 l0 -59 Z" /><glyph glyph-name="M" unicode="m" d="M625 -114 q-52 5 -56 57 l0 227 q4 53 56 57 l228 0 q52 -4 57 -57 l0 -227 q-5 -52 -57 -57 l-228 0 ZM625 333 q-52 3 -56 57 l0 227 q4 52 56 57 l228 0 q52 -5 57 -57 l0 -227 q-5 -54 -57 -57 l-228 0 ZM187 -114 q-52 5 -57 57 l0 227 q5 53 57 57 l227 0 q54 -4 57 -57 l0 -227 q-3 -52 -57 -57 l-227 0 ZM187 333 q-52 3 -57 57 l0 227 q5 52 57 57 l227 0 q54 -5 57 -57 l0 -227 q-3 -54 -57 -57 l-227 0 Z" /><glyph glyph-name="quotedbl" unicode="&quot;" d="M704 -122 q-83 1 -137 56 q-52 53 -55 133 q3 82 55 136 q54 52 137 55 q79 -3 132.5 -56 q53.5 -53 56.5 -135 q-3 -80 -56 -133 q-54 -55 -133 -56 ZM736 99 l0 100 l-65 0 l0 -100 l-101 0 l0 -65 l101 0 l0 -97 l65 0 l0 97 l97 0 l0 65 l-97 0 ZM342 2 q-30 2 -32 32 l0 459 q2 31 32 32 l228 0 q33 -1 34 -32 l0 -219 q-78 -38 -112 -112 q-34 -76 -8 -160 l-142 0 ZM638 525 q-4 33 -34 34 l-294 0 q-31 -1 -33 -34 l0 -523 q2 -31 33 -32 l187 0 q15 -36 45 -66 l-297 0 q-32 1 -33 33 l0 655 q1 30 33 32 l426 0 q31 -2 33 -32 l0 -296 q-36 0 -66 -10 l0 239 ZM375 656 q-31 3 -33 33 q2 32 33 33 l164 0 q31 -1 31 -33 q-4 -30 -31 -33 l-164 0 Z" /><glyph glyph-name="ampersand" unicode="&amp;" d="M703 -121 q-81 2 -134.5 55.5 q-53.5 53.5 -55.5 134.5 q2 80 55 132 q54 54 135 56 q80 -2 133 -56 q54 -52 56 -132 q-2 -81 -56 -134 q-53 -54 -133 -56 ZM572 100 l0 -65 l261 0 l0 65 l-261 0 ZM311 35 q1 31 33 34 l130 0 q0 -36 10 -66 l-140 0 q-32 4 -33 32 ZM638 525 q-3 31 -33 32 l-294 0 q-31 -1 -32 -32 l0 -522 q1 -31 32 -33 l186 0 q15 -35 45 -65 l-296 0 q-32 2 -32 33 l0 653 q0 30 32 32 l423 0 q32 -2 34 -32 l0 -294 q-35 0 -65 -10 l0 238 ZM376 655 q-31 2 -32 33 q1 31 32 33 l163 0 q32 -2 33 -33 q-4 -31 -33 -33 l-163 0 Z" /><glyph glyph-name="X" unicode="x" d="M483 239 l0 -341 l-340 185 l0 341 l340 -185 ZM546 239 l0 -341 l339 185 l0 341 l-339 -185 ZM514 702 l371 -201 l-371 -201 l-371 201 l371 201 Z" /><glyph glyph-name="one" unicode="1" d="M514 683 l414 -207 l-414 -205 l-411 205 l411 207 ZM514 212 l295 147 l119 -59 l-414 -207 l-411 207 l116 59 l295 -147 ZM514 35 l295 146 l119 -57 l-414 -207 l-411 207 l116 57 l295 -146 Z" /><glyph glyph-name="two" unicode="2" d="M165 -35 q-58 6 -63 63 l0 192 l222 0 l0 -95 l383 0 l0 95 l223 0 l0 -192 q-6 -57 -64 -63 l-701 0 ZM643 283 l0 -95 l-254 0 l0 95 l-287 0 l190 352 l447 0 l191 -352 l-287 0 ZM420 571 q-30 -1 -31 -32 q1 -31 31 -32 l192 0 q29 1 31 32 q-2 31 -31 32 l-192 0 ZM357 443 q-31 -1 -33 -31 q2 -31 33 -32 l318 0 q30 1 32 32 q-2 30 -32 31 l-318 0 Z" /><glyph glyph-name="colon" unicode=":" d="M739 -92 q-51 5 -56 57 l0 111 q5 52 56 57 l0 111 l-448 0 l0 -111 q50 -5 56 -57 l0 -111 q-6 -52 -56 -57 l-111 0 q-53 5 -57 57 l0 111 q4 52 57 57 l0 167 q3 51 55 57 l224 0 l0 111 l-112 0 q-51 5 -56 56 l0 112 q5 51 56 56 l336 0 q50 -5 56 -56 l0 -112 q-6 -51 -56 -56 l-112 0 l0 -111 l223 0 q52 -6 57 -57 l0 -167 q51 -5 56 -57 l0 -111 q-5 -52 -56 -57 l-112 0 Z" /><glyph glyph-name="*" unicode="&#xfe36;" d="M358 658 q47 -4 51 -51 l0 -205 q-4 -46 -51 -51 l-153 0 q-47 5 -51 51 l0 205 q4 47 51 51 l153 0 ZM358 250 q47 -4 51 -51 l0 -206 q-4 -47 -51 -51 l-153 0 q-47 4 -51 51 l0 206 q4 47 51 51 l153 0 ZM819 658 q47 -4 52 -51 l0 -51 q-5 -47 -52 -51 l-255 0 q-47 4 -52 51 l0 51 q5 47 52 51 l255 0 ZM819 378 q47 -5 52 -52 l0 -50 q-5 -47 -52 -51 l-255 0 q-47 4 -52 51 l0 50 q5 47 52 52 l255 0 ZM819 97 q47 -4 52 -51 l0 -53 q-5 -47 -52 -51 l-255 0 q-47 4 -52 51 l0 53 q5 47 52 51 l255 0 Z" /><glyph glyph-name="*" unicode="&#xfe41;" d="M622 80 l-220 -166 l-166 166 l-54 0 q-51 4 -55 55 l0 495 q4 51 55 56 l661 0 q50 -5 55 -56 l0 -495 q-5 -51 -55 -55 l-221 0 ZM347 549 q-50 -4 -55 -55 q5 -50 55 -55 l331 0 q49 5 55 55 q-6 51 -55 55 l-331 0 ZM347 329 q-50 -5 -55 -54 q5 -51 55 -56 l331 0 q49 5 55 56 q-6 49 -55 54 l-331 0 Z" /><glyph glyph-name="*" unicode="&#xfe42;" d="M169 -101 q-52 5 -57 58 l0 515 q5 52 57 56 l687 0 q52 -4 57 -56 l0 -515 q-5 -53 -57 -58 l-687 0 ZM462 176 q-20 -16 -40 0 l-121 122 q-21 16 -41 0 l-40 -41 q-17 -20 0 -40 l202 -203 q20 -16 40 0 l323 325 q18 20 0 39 l-40 41 q-19 17 -39 0 l-244 -243 ZM169 586 q-52 5 -57 56 q5 53 57 59 l687 0 q52 -6 57 -59 q-5 -51 -57 -56 l-687 0 Z" /><glyph glyph-name="dieresis" unicode="¨" d="M895 113 q-117 -225 -384 -239 q-389 36 -426 426 q32 372 397 426 l0 -447 l4 0 l409 -166 ZM543 321 l0 405 q363 -56 396 -426 q-1 -68 -21 -130 l-375 151 Z" /><glyph glyph-name="braceleft" unicode="{" d="M573 -118 q391 35 428 418 q-37 383 -428 418 q-392 -35 -428 -418 q36 -383 428 -418 ZM573 29 q-254 24 -277 271 q0 61 27 116 l368 -360 q-56 -27 -118 -27 ZM573 571 q162 -5 243 -141 q73 -142 -11 -277 l-382 375 q68 43 150 43 Z" /><glyph glyph-name="*" unicode="&#x3b1;" d="M958 -98 l0 341 l-114 0 l0 -227 l-113 0 l0 568 l-114 0 l0 -568 l-114 0 l0 455 l-114 0 l0 -455 l-113 0 l0 682 l-114 0 l0 -796 l796 0 Z" /><glyph glyph-name="*" unicode="&#x3b2;" d="M140 -22 l693 0 l0 445 l-198 -198 l-196 149 l-299 -396 ZM431 490 l204 -136 l198 204 l0 144 l-198 -228 l-204 144 l-291 -336 l0 -163 l291 371 Z" /><glyph glyph-name="*" unicode="&#x3b3;" d="M121 643 l0 -392 l489 0 l0 392 l-489 0 ZM708 643 l0 -392 l196 0 l0 392 l-196 0 ZM121 153 l0 -196 l783 0 l0 196 l-783 0 Z" /><glyph glyph-name="*" unicode="&#x2229;" d="M813 46 q29 12 30 43 l0 490 q-1 31 -30 44 q-30 9 -51 -14 l-170 -245 q-22 -30 0 -60 l170 -244 q21 -24 51 -14 ZM520 11 q42 4 46 46 l0 554 q-4 42 -46 46 q-42 -4 -46 -46 l0 -554 q4 -42 46 -46 ZM278 60 l170 244 q23 30 0 60 l-170 244 q-21 24 -51 14 q-29 -12 -30 -44 l0 -489 q2 -31 30 -43 q30 -10 51 14 Z" /><glyph glyph-name="*" unicode="&#x2208;" d="M171 -49 l0 748 l-49 0 l0 -798 l801 0 l0 50 l-752 0 ZM680 642 q-137 -14 -148 -150 q11 -135 148 -148 q136 13 150 148 q-14 136 -150 150 ZM307 125 q-46 -5 -50 -51 q4 -46 50 -49 q45 3 50 49 q-5 46 -50 51 ZM622 248 q-115 -10 -125 -123 q10 -115 125 -126 q113 11 125 126 q-12 113 -125 123 ZM382 492 q-91 -9 -99 -100 q8 -91 99 -99 q91 8 99 99 q-8 91 -99 100 Z" /><glyph glyph-name="quotesingle" unicode="&#39;" d="M1066 61 l-450 487 l-178 -225 l-318 300 l-56 -66 l383 -374 l178 225 l366 -413 l75 66 ZM1075 314 l-94 0 l0 -243 l-234 0 l0 -94 l328 0 l0 337 Z" /><glyph glyph-name="parenleft" unicode="(" d="M398 283 l163 -205 l409 444 l-67 60 l-334 -376 l-162 205 l-350 -342 l51 -59 l290 273 ZM979 590 l-299 0 l0 -85 l213 0 l0 -205 l86 0 l0 290 Z" /><glyph glyph-name="parenright" unicode=")" d="M825 562 q-18 23 -50 24 q-59 -5 -64 -63 q1 -32 23 -51 q80 -80 82 -199 q-23 -258 -282 -282 q-259 24 -283 282 q4 122 87 203 q24 18 26 52 q-6 58 -66 63 q-24 -1 -42 -16 q-125 -117 -130 -299 q35 -373 408 -408 q372 35 408 408 q-5 170 -117 286 ZM534 732 q-57 -6 -63 -63 l0 -377 q6 -57 63 -62 q57 5 62 62 l0 377 q-5 57 -62 63 Z" /><glyph glyph-name="*" unicode="&#x300e;" d="M815 -114 q55 5 60 59 l0 70 q-60 -21 -118 0 l0 -70 q5 -54 58 -59 ZM757 348 q58 22 118 0 l0 307 q-5 54 -60 59 q-53 -5 -58 -59 l0 -307 ZM521 596 q30 0 59 -11 l0 70 q-6 54 -59 59 q-55 -5 -60 -59 l0 -70 q29 11 60 11 ZM225 -114 q54 5 59 59 l0 70 q-59 -21 -118 0 l0 -70 q5 -54 59 -59 ZM166 348 q59 22 118 0 l0 307 q-5 54 -59 59 q-54 -5 -59 -59 l0 -307 ZM521 241 q-31 0 -60 11 l0 -307 q5 -54 60 -59 q53 5 59 59 l0 307 q-29 -11 -59 -11 ZM225 300 q-108 -11 -118 -118 q10 -108 118 -118 q108 10 118 118 q-10 107 -118 118 ZM815 300 q-107 -11 -117 -118 q10 -108 117 -118 q109 10 119 118 q-10 107 -119 118 ZM521 536 q-109 -10 -120 -118 q11 -107 120 -118 q108 11 118 118 q-10 108 -118 118 Z" /><glyph glyph-name="1" unicode="&#x300f;" d="M943 -83 q35 44 0 88 l-140 141 q88 182 -49 332 q-154 132 -333 38 q-168 -114 -124 -312 q68 -191 270 -199 q75 1 139 40 l137 -139 q45 -36 89 1 l11 10 ZM567 418 q58 -1 100 -41 q39 -42 40 -100 q-4 -91 -87 -129 q-86 -32 -153 30 q-62 68 -30 154 q39 84 130 86 ZM235 269 q4 190 164 293 q165 94 336 12 l0 101 q-5 58 -62 63 l-500 0 q-57 -5 -62 -63 l0 -750 q5 -58 62 -63 l500 0 q57 5 62 63 l0 39 q-171 -84 -336 10 q-160 105 -164 295 Z" /><glyph glyph-name="2" unicode="&#x3016;" d="M182 695 q-52 -5 -57 -57 l0 -676 q5 -52 57 -57 l676 0 q52 5 57 57 l0 676 q-5 52 -57 57 l-676 0 ZM237 582 l170 0 l113 -284 l-113 -280 l-170 0 l114 281 l-114 283 ZM520 582 l168 0 l114 -284 l-114 -280 l-168 0 l112 281 l-112 283 Z" /></font>
</defs>
</svg>
